# xmcd CD database file
#
# Track frame offsets:
#	150
#	14503
#	29835
#	48334
#	59749
#	76040
#	93036
#	108089
#	125484
#	138520
#	150473
#	163557
#	176538
#	189425
#	204491
#	218175
#	234967
#	248766
#	264052
#	277014
#	290061
#	306492
#	344824
#
# Disc length: 4777 seconds
#
# Revision: 0
# Processed by: cddbd v1.5.2PL0 Copyright (c) Steve Scherf et al.
# Submitted via: CDex 1.70beta2
#
DISCID=4c12a717
DTITLE=Sertanejão do Cabral - Sertanejão do Cabral
DYEAR=2008
DGENRE=Country
TTITLE0=Cachaceiro - Eduardo Costa
TTITLE1=Pode Chorar - Jorge e Matheus
TTITLE2=Fada - Victor e Leo
TTITLE3=Ciumenta - Cesar Menotti e Fabiano
TTITLE4=Beber, Cair e Levantar - André e Adriano
TTITLE5=Só de Você - Guilherme e Santiago
TTITLE6=Pôr pra Dentro - Gino e Geno
TTITLE7=Bala de Prata - Fernando e Sorocaba
TTITLE8=Afogar o Ganso - Teodoro e Sampaio
TTITLE9=Latinha no Bico - Rio Negro e Solimões
TTITLE10=Rodo sem Borracha - Leonardo
TTITLE11=Tô Falando, Tá Queimando - João Bosco e Vinicius
TTITLE12=Galera do Buteco - João Neto e Frederico
TTITLE13=Tem Tudo a Ver - Zé Henrique e Gabriel
TTITLE14=Fórmula Secreta - Daniel
TTITLE15=Vamos Fazer Festa - Edson e Hudson
TTITLE16=Amor de Balada - Bruno e Marrone
TTITLE17=Tô com a Maior Moral - Zezé de Camargo e Luciano
TTITLE18=Monzão no Pau - Felipe e Falcão
TTITLE19=É Segredo - Di Paulo e Paulino
TTITLE20=Aos Trancos e Barrancos - Mato Grosso e Mathias
TTITLE21=Bens Materiais - Gigante do Brasil
TTITLE22=Chupa que é Uva - Lelles and Leonardo
EXTD=YEAR: 2008
EXTT0=
EXTT1=
EXTT2=
EXTT3=
EXTT4=
EXTT5=
EXTT6=
EXTT7=
EXTT8=
EXTT9=
EXTT10=
EXTT11=
EXTT12=
EXTT13=
EXTT14=
EXTT15=
EXTT16=
EXTT17=
EXTT18=
EXTT19=
EXTT20=
EXTT21=
EXTT22=
PLAYORDER=
